<svg width="13" height="14" viewBox="0 0 13 14" fill="none" xmlns="http://www.w3.org/2000/svg">
<g clip-path="url(#clip0_64_76)">
<path d="M12.9879 9.18968C12.9574 9.88042 12.8457 10.3553 12.6857 10.7668C12.5206 11.2036 12.2667 11.5946 11.934 11.9197C11.6089 12.2499 11.2152 12.5064 10.7835 12.6689C10.3697 12.8289 9.89726 12.9406 9.20652 12.971C8.51062 13.0041 8.2897 13.0117 6.52471 13.0117C4.75971 13.0117 4.53879 13.0041 3.84547 12.9736C3.15473 12.9432 2.67985 12.8314 2.26847 12.6715C1.83158 12.5064 1.44053 12.2524 1.11545 11.9197C0.785305 11.5946 0.528869 11.201 0.366278 10.7693C0.206266 10.3553 0.094565 9.883 0.0641101 9.19226C0.031076 8.49636 0.0234375 8.27544 0.0234375 6.51045C0.0234375 4.74545 0.031076 4.52453 0.0615309 3.83121C0.0919857 3.14047 0.203786 2.6656 0.363798 2.25411C0.528869 1.81732 0.785305 1.42627 1.11545 1.10119C1.44053 0.771046 1.83416 0.514511 2.26589 0.352018C2.67985 0.192006 3.15215 0.0803061 3.84299 0.0498505C4.53621 0.0192966 4.75723 0.0117579 6.52223 0.0117579C8.28722 0.0117579 8.50814 0.0192966 9.20146 0.0498505C9.8922 0.0803061 10.3671 0.192006 10.7785 0.352018C11.6521 0.689799 12.3429 1.38054 12.6807 2.25411C12.8406 2.66808 12.9524 3.14047 12.9828 3.83121C13.0133 4.52453 13.0209 4.74545 13.0209 6.51045C13.0209 8.27544 13.0183 8.49636 12.9879 9.18968ZM11.8172 3.882C11.7892 3.24712 11.6826 2.90427 11.5937 2.67571C11.3753 2.10937 10.9258 1.65989 10.3594 1.44145C10.1309 1.35256 9.78556 1.24592 9.15315 1.21805C8.46747 1.18749 8.26182 1.17995 6.52728 1.17995C4.79275 1.17995 4.58452 1.18749 3.90132 1.21805C3.26643 1.24592 2.92359 1.35256 2.69503 1.44145C2.4132 1.54561 2.15667 1.71068 1.94844 1.92655C1.73258 2.13735 1.56751 2.3913 1.46335 2.67314C1.37446 2.9017 1.26782 3.24712 1.23995 3.87943C1.20939 4.56511 1.20185 4.77085 1.20185 6.50539C1.20185 8.23993 1.20939 8.44815 1.23995 9.13125C1.26782 9.76614 1.37446 10.109 1.46335 10.3375C1.56751 10.6195 1.73258 10.8759 1.95102 11.0842C2.16173 11.3001 2.41568 11.4652 2.69761 11.5692C2.92617 11.6581 3.27159 11.7648 3.9039 11.7927C4.58958 11.8232 4.79533 11.8308 6.52976 11.8308C8.26688 11.8308 8.47253 11.8232 9.15573 11.7927C9.79062 11.7648 10.1335 11.6581 10.362 11.5692C10.6438 11.4652 10.9004 11.3001 11.1086 11.0842C11.3245 10.8734 11.4895 10.6195 11.5937 10.3375C11.6826 10.109 11.7892 9.76366 11.8172 9.13125C11.8477 8.44557 11.8553 8.23993 11.8553 6.50539C11.8553 4.77085 11.8477 4.56769 11.8172 3.882Z" fill="white"/>
<path d="M6.52507 9.8501C4.68141 9.8501 3.18555 8.35434 3.18555 6.51058C3.18555 4.66682 4.68141 3.17106 6.52507 3.17106C8.36882 3.17106 9.86458 4.66682 9.86458 6.51058C9.86458 8.35434 8.36882 9.8501 6.52507 9.8501ZM6.52507 4.34432C5.32899 4.34432 4.3588 5.31441 4.3588 6.51058C4.3588 7.70675 5.32899 8.67684 6.52507 8.67684C7.72124 8.67684 8.69133 7.70675 8.69133 6.51058C8.69133 5.31441 7.72124 4.34432 6.52507 4.34432Z" fill="white"/>
<path d="M10.7761 9.98209C10.7761 9.55156 10.4271 9.20247 9.99642 9.20247C9.56589 9.20247 9.2168 9.55156 9.2168 9.98209C9.2168 10.4127 9.56589 10.7617 9.99642 10.7617C10.4271 10.7617 10.7761 10.4127 10.7761 9.98209Z" fill="white"/>
</g>
<defs>
<clipPath id="clip0_64_76">
<rect width="13" height="13" fill="white" transform="matrix(1 0 0 -1 0 13.0117)"/>
</clipPath>
</defs>
</svg>
