<svg width="13" height="14" viewBox="0 0 13 14" fill="none" xmlns="http://www.w3.org/2000/svg">
<g clip-path="url(#clip0_64_72)">
<path d="M11.4766 0.0117188H1.52344C0.683414 0.0117188 0 0.695133 0 1.53516V11.4883C0 12.3283 0.683414 13.0117 1.52344 13.0117H11.4766C12.3166 13.0117 13 12.3283 13 11.4883V1.53516C13 0.695133 12.3166 0.0117188 11.4766 0.0117188ZM11.9844 11.4883C11.9844 11.7683 11.7566 11.9961 11.4766 11.9961H8.58203V7.85742H10.1509L10.4102 6.2832H8.58203V5.19141C8.58203 4.7604 8.91274 4.42969 9.34375 4.42969H10.3848V2.85547H9.34375C8.05078 2.85547 7.00837 3.90283 7.00837 5.19582V6.2832H5.48438V7.85742H7.00837V11.9961H1.52344C1.24343 11.9961 1.01562 11.7683 1.01562 11.4883V1.53516C1.01562 1.25515 1.24343 1.02734 1.52344 1.02734H11.4766C11.7566 1.02734 11.9844 1.25515 11.9844 1.53516V11.4883Z" fill="white"/>
</g>
<defs>
<clipPath id="clip0_64_72">
<rect width="13" height="13" fill="white" transform="translate(0 0.0117188)"/>
</clipPath>
</defs>
</svg>
