<svg width="13" height="14" viewBox="0 0 13 14" fill="none" xmlns="http://www.w3.org/2000/svg">
<g clip-path="url(#clip0_64_66)">
<path d="M9.56674 0.0117188H3.43326C1.508 0.0117188 0 1.51972 0 3.44498V9.57846C0 11.5037 1.508 13.0117 3.43326 13.0117H9.56674C11.492 13.0117 13 11.5037 13 9.57846V3.44498C13 1.51972 11.4916 0.0117188 9.56674 0.0117188ZM12.1613 9.57846C12.1613 11.0336 11.0215 12.173 9.56674 12.173H3.43326C1.97852 12.173 0.83871 11.0332 0.83871 9.57846V3.44498C0.83871 1.99023 1.97852 0.850428 3.43326 0.850428H9.56674C11.0219 0.850428 12.1613 1.99023 12.1613 3.44498V9.57846Z" fill="white"/>
<path d="M10.59 3.33075C10.4554 3.2322 10.275 3.22381 10.1312 3.30769C9.98779 3.39198 9.66992 3.43349 9.41495 3.46704C9.36211 3.47417 9.31011 3.48088 9.25979 3.48801C8.90292 3.19194 8.44708 3.02588 7.97698 3.02588C6.91811 3.02588 6.04921 3.8453 5.98757 4.87607C5.02724 4.7142 4.14786 4.21349 3.5247 3.46117C3.43202 3.34878 3.28818 3.29385 3.14308 3.31272C2.99883 3.33285 2.87554 3.42636 2.81725 3.55972C2.79041 3.62094 2.55641 4.19672 2.55641 5.62085C2.55641 6.85417 3.52973 7.7604 4.19734 8.2372C3.74066 8.44478 3.21437 8.5211 2.7145 8.46575C2.51908 8.44478 2.33625 8.55969 2.27167 8.74378C2.20708 8.9283 2.27837 9.13294 2.4436 9.23736C3.23199 9.73472 4.14324 9.99765 5.07924 9.99765C8.08518 9.99765 9.90434 7.63627 9.97185 5.30801C10.0582 5.18262 10.223 4.93856 10.5015 4.51039C10.613 4.33804 10.7066 3.96649 10.7523 3.76059C10.7888 3.59788 10.7246 3.42888 10.59 3.33075ZM9.21534 4.92681C9.16376 4.9981 9.13566 5.08449 9.13566 5.17256C9.13566 6.82775 7.87718 9.15894 5.07966 9.15894C4.82679 9.15894 4.57602 9.13588 4.33028 9.09059C4.65821 8.96646 4.96812 8.79327 5.25286 8.57394C5.36692 8.4863 5.42773 8.34539 5.41431 8.20239C5.40089 8.05939 5.31492 7.93275 5.18618 7.86775C5.16815 7.85852 3.39554 6.9263 3.39554 5.62127C3.39554 5.18388 3.41902 4.84001 3.45005 4.57833C4.27324 5.28704 5.32079 5.71101 6.42328 5.76552C6.43166 5.76594 6.44047 5.76636 6.44844 5.76594C6.6925 5.75881 6.87199 5.57975 6.87199 5.34659C6.87199 5.28872 6.86024 5.23378 6.83886 5.18346C6.82837 5.12056 6.82292 5.05723 6.82292 4.99391C6.82292 4.37117 7.3404 3.86459 7.97698 3.86459C8.29653 3.86459 8.60392 3.99543 8.82073 4.22314C8.91969 4.3263 9.06437 4.37285 9.20402 4.34559C9.29921 4.32756 9.40908 4.3133 9.5244 4.2982C9.5655 4.29275 9.60702 4.2873 9.64937 4.28143C9.33444 4.76117 9.22079 4.91927 9.21534 4.92681Z" fill="white"/>
</g>
<defs>
<clipPath id="clip0_64_66">
<rect width="13" height="13" fill="white" transform="translate(0 0.0117188)"/>
</clipPath>
</defs>
</svg>
