<svg width="16" height="18" viewBox="0 0 16 18" fill="none" xmlns="http://www.w3.org/2000/svg">
<path d="M10.5922 8.08938L6.84222 5.59914C6.69769 5.50319 6.51556 5.49811 6.36653 5.58586C6.21747 5.67362 6.125 5.84043 6.125 6.02149V11.002C6.125 11.183 6.21747 11.3498 6.36653 11.4376C6.43734 11.4793 6.51559 11.5 6.59375 11.5C6.68009 11.5 6.76631 11.4747 6.84219 11.4243L10.5922 8.93406C10.7293 8.84305 10.8125 8.68345 10.8125 8.51172C10.8125 8.33999 10.7293 8.18039 10.5922 8.08938ZM7.06253 10.1033V6.92006L9.45934 8.51172L7.06253 10.1033Z" fill="white"/>
<path d="M13.6562 2.03711H2.34375C1.05141 2.03711 0 3.15423 0 4.52734V12.4961C0 13.8692 1.05141 14.9863 2.34375 14.9863H13.6562C14.9486 14.9863 16 13.8692 16 12.4961V4.52734C16 3.15423 14.9486 2.03711 13.6562 2.03711ZM15.0625 12.4961C15.0625 13.32 14.4317 13.9902 13.6562 13.9902H2.34375C1.56834 13.9902 0.9375 13.32 0.9375 12.4961V4.52734C0.9375 3.70347 1.56834 3.0332 2.34375 3.0332H13.6562C14.4317 3.0332 15.0625 3.70347 15.0625 4.52734V12.4961Z" fill="white"/>
</svg>
